<mxfile host="www.draw.io" modified="2019-11-06T11:55:13.600Z" agent="Mozilla/5.0 (Macintosh; Intel Mac OS X 10_13_6) AppleWebKit/537.36 (KHTML, like Gecko) Chrome/78.0.3904.70 Safari/537.36" etag="nHVF7ABlTvNrI7H-j47y" version="12.2.0" type="github" pages="1">
  <diagram id="OG_3daqmPXwo6dfM5W2Y" name="Page-1">
    <mxGraphModel dx="1426" dy="722" grid="1" gridSize="10" guides="1" tooltips="1" connect="1" arrows="1" fold="1" page="1" pageScale="1" pageWidth="827" pageHeight="1169" math="0" shadow="0">
      <root>
        <mxCell id="0"/>
        <mxCell id="1" parent="0"/>
        <mxCell id="NKZOd0Z_KnoT7uFEeNIq-1" value="" style="shape=umlLifeline;participant=umlEntity;perimeter=lifelinePerimeter;whiteSpace=wrap;html=1;container=1;collapsible=0;recursiveResize=0;verticalAlign=top;spacingTop=36;labelBackgroundColor=#ffffff;outlineConnect=0;" parent="1" vertex="1">
          <mxGeometry x="70" y="130" width="60" height="550" as="geometry"/>
        </mxCell>
        <mxCell id="NKZOd0Z_KnoT7uFEeNIq-15" value="slave" style="text;align=center;fontStyle=1;verticalAlign=middle;spacingLeft=3;spacingRight=3;strokeColor=none;rotatable=0;points=[[0,0.5],[1,0.5]];portConstraint=eastwest;" parent="NKZOd0Z_KnoT7uFEeNIq-1" vertex="1">
          <mxGeometry x="-10" y="8" width="80" height="26" as="geometry"/>
        </mxCell>
        <mxCell id="NKZOd0Z_KnoT7uFEeNIq-24" value="" style="html=1;points=[];perimeter=orthogonalPerimeter;" parent="NKZOd0Z_KnoT7uFEeNIq-1" vertex="1">
          <mxGeometry x="25" y="60" width="10" height="470" as="geometry"/>
        </mxCell>
        <mxCell id="NKZOd0Z_KnoT7uFEeNIq-3" value="" style="shape=umlLifeline;participant=umlEntity;perimeter=lifelinePerimeter;whiteSpace=wrap;html=1;container=1;collapsible=0;recursiveResize=0;verticalAlign=top;spacingTop=36;labelBackgroundColor=#ffffff;outlineConnect=0;" parent="1" vertex="1">
          <mxGeometry x="180" y="130" width="60" height="550" as="geometry"/>
        </mxCell>
        <mxCell id="NKZOd0Z_KnoT7uFEeNIq-16" value="master" style="text;align=center;fontStyle=1;verticalAlign=middle;spacingLeft=3;spacingRight=3;strokeColor=none;rotatable=0;points=[[0,0.5],[1,0.5]];portConstraint=eastwest;" parent="NKZOd0Z_KnoT7uFEeNIq-3" vertex="1">
          <mxGeometry x="-10" y="8" width="80" height="26" as="geometry"/>
        </mxCell>
        <mxCell id="NKZOd0Z_KnoT7uFEeNIq-25" value="" style="html=1;points=[];perimeter=orthogonalPerimeter;" parent="NKZOd0Z_KnoT7uFEeNIq-3" vertex="1">
          <mxGeometry x="25" y="60" width="10" height="470" as="geometry"/>
        </mxCell>
        <mxCell id="NKZOd0Z_KnoT7uFEeNIq-4" value="" style="shape=umlLifeline;participant=umlEntity;perimeter=lifelinePerimeter;whiteSpace=wrap;html=1;container=1;collapsible=0;recursiveResize=0;verticalAlign=top;spacingTop=36;labelBackgroundColor=#ffffff;outlineConnect=0;" parent="1" vertex="1">
          <mxGeometry x="300" y="130" width="60" height="550" as="geometry"/>
        </mxCell>
        <mxCell id="NKZOd0Z_KnoT7uFEeNIq-26" value="" style="html=1;points=[];perimeter=orthogonalPerimeter;" parent="NKZOd0Z_KnoT7uFEeNIq-4" vertex="1">
          <mxGeometry x="25" y="60" width="10" height="470" as="geometry"/>
        </mxCell>
        <mxCell id="NKZOd0Z_KnoT7uFEeNIq-17" value="allocator" style="text;align=center;fontStyle=1;verticalAlign=middle;spacingLeft=3;spacingRight=3;strokeColor=none;rotatable=0;points=[[0,0.5],[1,0.5]];portConstraint=eastwest;" parent="NKZOd0Z_KnoT7uFEeNIq-4" vertex="1">
          <mxGeometry x="-10" y="7" width="80" height="26" as="geometry"/>
        </mxCell>
        <mxCell id="NKZOd0Z_KnoT7uFEeNIq-32" value="periodly allocate" style="html=1;verticalAlign=bottom;endArrow=block;entryX=0.05;entryY=0.166;entryDx=0;entryDy=0;entryPerimeter=0;" parent="NKZOd0Z_KnoT7uFEeNIq-4" edge="1">
          <mxGeometry width="80" relative="1" as="geometry">
            <mxPoint x="38" y="140" as="sourcePoint"/>
            <mxPoint x="140" y="138.01999999999998" as="targetPoint"/>
          </mxGeometry>
        </mxCell>
        <mxCell id="NKZOd0Z_KnoT7uFEeNIq-34" value="return" style="html=1;verticalAlign=bottom;endArrow=open;dashed=1;endSize=8;" parent="NKZOd0Z_KnoT7uFEeNIq-4" edge="1">
          <mxGeometry relative="1" as="geometry">
            <mxPoint x="135" y="280" as="sourcePoint"/>
            <mxPoint x="35" y="280" as="targetPoint"/>
          </mxGeometry>
        </mxCell>
        <mxCell id="NKZOd0Z_KnoT7uFEeNIq-5" value="" style="shape=umlLifeline;participant=umlEntity;perimeter=lifelinePerimeter;whiteSpace=wrap;html=1;container=1;collapsible=0;recursiveResize=0;verticalAlign=top;spacingTop=36;labelBackgroundColor=#ffffff;outlineConnect=0;" parent="1" vertex="1">
          <mxGeometry x="413" y="130" width="67" height="550" as="geometry"/>
        </mxCell>
        <mxCell id="NKZOd0Z_KnoT7uFEeNIq-18" value="sorter" style="text;align=center;fontStyle=1;verticalAlign=middle;spacingLeft=3;spacingRight=3;strokeColor=none;rotatable=0;points=[[0,0.5],[1,0.5]];portConstraint=eastwest;" parent="NKZOd0Z_KnoT7uFEeNIq-5" vertex="1">
          <mxGeometry x="-6.5" y="8" width="80" height="26" as="geometry"/>
        </mxCell>
        <mxCell id="NKZOd0Z_KnoT7uFEeNIq-27" value="" style="html=1;points=[];perimeter=orthogonalPerimeter;" parent="NKZOd0Z_KnoT7uFEeNIq-5" vertex="1">
          <mxGeometry x="28.5" y="60" width="10" height="470" as="geometry"/>
        </mxCell>
        <mxCell id="NKZOd0Z_KnoT7uFEeNIq-33" value="sort" style="html=1;verticalAlign=bottom;endArrow=block;entryX=1.05;entryY=0.396;entryDx=0;entryDy=0;entryPerimeter=0;" parent="NKZOd0Z_KnoT7uFEeNIq-5" target="NKZOd0Z_KnoT7uFEeNIq-27" edge="1">
          <mxGeometry width="80" relative="1" as="geometry">
            <mxPoint x="37" y="160" as="sourcePoint"/>
            <mxPoint x="117" y="160" as="targetPoint"/>
            <Array as="points">
              <mxPoint x="87" y="160"/>
              <mxPoint x="107" y="190"/>
              <mxPoint x="97" y="240"/>
            </Array>
          </mxGeometry>
        </mxCell>
        <mxCell id="NKZOd0Z_KnoT7uFEeNIq-6" value="" style="shape=umlLifeline;participant=umlEntity;perimeter=lifelinePerimeter;whiteSpace=wrap;html=1;container=1;collapsible=0;recursiveResize=0;verticalAlign=top;spacingTop=36;labelBackgroundColor=#ffffff;outlineConnect=0;" parent="1" vertex="1">
          <mxGeometry x="546" y="130" width="70" height="550" as="geometry"/>
        </mxCell>
        <mxCell id="NKZOd0Z_KnoT7uFEeNIq-19" value="scheduler" style="text;align=center;fontStyle=1;verticalAlign=middle;spacingLeft=3;spacingRight=3;strokeColor=none;rotatable=0;points=[[0,0.5],[1,0.5]];portConstraint=eastwest;" parent="NKZOd0Z_KnoT7uFEeNIq-6" vertex="1">
          <mxGeometry x="-5" y="8" width="80" height="26" as="geometry"/>
        </mxCell>
        <mxCell id="NKZOd0Z_KnoT7uFEeNIq-28" value="" style="html=1;points=[];perimeter=orthogonalPerimeter;" parent="NKZOd0Z_KnoT7uFEeNIq-6" vertex="1">
          <mxGeometry x="30" y="60" width="10" height="470" as="geometry"/>
        </mxCell>
        <mxCell id="NKZOd0Z_KnoT7uFEeNIq-36" value="Offer" style="html=1;verticalAlign=bottom;endArrow=block;" parent="NKZOd0Z_KnoT7uFEeNIq-6" edge="1">
          <mxGeometry width="80" relative="1" as="geometry">
            <mxPoint x="-328" y="340" as="sourcePoint"/>
            <mxPoint x="30" y="340" as="targetPoint"/>
          </mxGeometry>
        </mxCell>
        <mxCell id="NKZOd0Z_KnoT7uFEeNIq-20" value="register" style="html=1;verticalAlign=bottom;endArrow=block;" parent="1" edge="1">
          <mxGeometry width="80" relative="1" as="geometry">
            <mxPoint x="107" y="200" as="sourcePoint"/>
            <mxPoint x="206.5" y="200" as="targetPoint"/>
            <Array as="points">
              <mxPoint x="157" y="200"/>
            </Array>
          </mxGeometry>
        </mxCell>
        <mxCell id="NKZOd0Z_KnoT7uFEeNIq-21" value="addSlave" style="html=1;verticalAlign=bottom;endArrow=block;" parent="1" edge="1">
          <mxGeometry width="80" relative="1" as="geometry">
            <mxPoint x="216" y="230" as="sourcePoint"/>
            <mxPoint x="326" y="230" as="targetPoint"/>
            <Array as="points"/>
          </mxGeometry>
        </mxCell>
        <mxCell id="NKZOd0Z_KnoT7uFEeNIq-38" value="offerCallback" style="html=1;verticalAlign=bottom;endArrow=open;dashed=1;endSize=8;" parent="1" edge="1">
          <mxGeometry relative="1" as="geometry">
            <mxPoint x="323" y="440" as="sourcePoint"/>
            <mxPoint x="218" y="440" as="targetPoint"/>
          </mxGeometry>
        </mxCell>
        <mxCell id="NKZOd0Z_KnoT7uFEeNIq-39" value="accept" style="html=1;verticalAlign=bottom;endArrow=block;entryX=0.5;entryY=0.666;entryDx=0;entryDy=0;entryPerimeter=0;" parent="1" edge="1">
          <mxGeometry width="80" relative="1" as="geometry">
            <mxPoint x="581" y="503" as="sourcePoint"/>
            <mxPoint x="213" y="503.02" as="targetPoint"/>
          </mxGeometry>
        </mxCell>
        <mxCell id="NKZOd0Z_KnoT7uFEeNIq-40" value="runTask" style="html=1;verticalAlign=bottom;endArrow=block;entryX=0.9;entryY=0.721;entryDx=0;entryDy=0;entryPerimeter=0;" parent="1" target="NKZOd0Z_KnoT7uFEeNIq-24" edge="1">
          <mxGeometry width="80" relative="1" as="geometry">
            <mxPoint x="200" y="529" as="sourcePoint"/>
            <mxPoint x="227" y="513.02" as="targetPoint"/>
          </mxGeometry>
        </mxCell>
        <mxCell id="NKZOd0Z_KnoT7uFEeNIq-41" value="exitedExecutor" style="html=1;verticalAlign=bottom;endArrow=block;exitX=1.1;exitY=0.787;exitDx=0;exitDy=0;exitPerimeter=0;" parent="1" source="NKZOd0Z_KnoT7uFEeNIq-24" edge="1">
          <mxGeometry width="80" relative="1" as="geometry">
            <mxPoint x="110" y="560" as="sourcePoint"/>
            <mxPoint x="210" y="560" as="targetPoint"/>
          </mxGeometry>
        </mxCell>
        <mxCell id="NKZOd0Z_KnoT7uFEeNIq-42" value="recoverResources" style="html=1;verticalAlign=bottom;endArrow=block;exitX=0.9;exitY=0.843;exitDx=0;exitDy=0;exitPerimeter=0;entryX=0;entryY=0.843;entryDx=0;entryDy=0;entryPerimeter=0;" parent="1" source="NKZOd0Z_KnoT7uFEeNIq-25" target="NKZOd0Z_KnoT7uFEeNIq-26" edge="1">
          <mxGeometry width="80" relative="1" as="geometry">
            <mxPoint x="116" y="569.8900000000001" as="sourcePoint"/>
            <mxPoint x="325" y="587" as="targetPoint"/>
          </mxGeometry>
        </mxCell>
        <mxCell id="NKZOd0Z_KnoT7uFEeNIq-43" value="update" style="html=1;verticalAlign=bottom;endArrow=block;exitX=1;exitY=0.896;exitDx=0;exitDy=0;exitPerimeter=0;entryX=-0.15;entryY=0.894;entryDx=0;entryDy=0;entryPerimeter=0;" parent="1" source="NKZOd0Z_KnoT7uFEeNIq-26" target="NKZOd0Z_KnoT7uFEeNIq-27" edge="1">
          <mxGeometry width="80" relative="1" as="geometry">
            <mxPoint x="224" y="596.21" as="sourcePoint"/>
            <mxPoint x="335" y="596.21" as="targetPoint"/>
          </mxGeometry>
        </mxCell>
      </root>
    </mxGraphModel>
  </diagram>
</mxfile>
